<svg width="0" height="0" class="hidden">
  <symbol fill="none" xmlns="http://www.w3.org/2000/svg" viewBox="0 0 92 92" id="business">
    <g opacity=".51">
      <path d="M61.803 1.797H11.99a4.82 4.82 0 00-4.803 4.825V85.34a4.82 4.82 0 004.803 4.825h49.812a1.078 1.078 0 000-2.156H11.99a2.661 2.661 0 01-2.647-2.67V6.623a2.661 2.661 0 012.647-2.669h49.812a2.661 2.661 0 012.647 2.67v42.783a1.078 1.078 0 002.156 0V6.622a4.82 4.82 0 00-4.803-4.825z" fill="#fff" fill-opacity=".48"></path>
      <path d="M61.803 1.547h0a5.07 5.07 0 015.053 5.076m-5.053-5.076l4.803 5.075m-4.803-5.075H11.99a5.07 5.07 0 00-5.053 5.076m54.866-5.076L6.938 6.623m59.918 0h-.25m.25 0v0h-.25m.25 0v42.783a1.328 1.328 0 01-2.656 0V6.622v0a2.411 2.411 0 00-2.398-2.419m4.804 2.42v42.783a1.078 1.078 0 01-2.156 0V6.622a2.661 2.661 0 00-2.647-2.669m0 .25h0v-.25m0 .25H11.99m49.811 0s0 0 0 0v-.25m0 0H11.992M9.344 85.34a2.661 2.661 0 002.647 2.67m-2.647-2.67L61.803 1.797H11.99a4.82 4.82 0 00-4.803 4.825M9.344 85.34V6.622a2.661 2.661 0 012.647-2.669M9.344 85.34L11.99 4.203m0 83.805h49.812a1.078 1.078 0 110 2.156H11.99a4.82 4.82 0 01-4.803-4.825m4.803 2.67v-.25h.001l-.001.25zm-4.803-2.67V6.622m0 78.717h-.25v0V6.623m.25 78.716l-.25-78.716m.25 0h-.25v0m.25 0h-.25s0 0 0 0m5.053-2.42h0v-.25m0 .25h.001l-.001-.25" stroke="#fff" stroke-opacity=".48" stroke-width=".5"></path>
      <path d="M60.024 29.37a1.439 1.439 0 001.437-1.437V10.13a1.439 1.439 0 00-1.437-1.438h-46.48a1.44 1.44 0 00-1.437 1.438v17.802a1.439 1.439 0 001.438 1.437h46.479zm-45.76-18.52h45.041v16.364H14.264V10.85z" fill="#fff" fill-opacity=".48"></path>
      <path d="M60.024 29.62h0a1.69 1.69 0 001.687-1.687v0V10.13v0a1.69 1.69 0 00-1.687-1.688h0-46.48 0a1.689 1.689 0 00-1.687 1.688v17.802h0a1.689 1.689 0 001.688 1.687h46.479zM14.514 11.1h44.541v15.864H14.514V11.1z" stroke="#fff" stroke-opacity=".48" stroke-width=".5"></path>
      <path d="M60.57 50.561a1.078 1.078 0 001.078-1.078V34.927a1.453 1.453 0 00-1.45-1.453H12.851a1.454 1.454 0 00-1.45 1.453v48.551a1.454 1.454 0 001.45 1.453h30.327c.236.087.496.087.732 0h5.66a1.078 1.078 0 000-2.156h-4.947v-5.74a1.078 1.078 0 00-2.157 0v5.74H28.8v-9.903h14.38a1.078 1.078 0 100-2.156H28.8V60.233h14.37v2.12a1.078 1.078 0 102.156 0v-2.12h.466a1.078 1.078 0 000-2.156h-.466V47.968h14.166v1.515a1.078 1.078 0 001.078 1.078zm-17.4-14.93v10.18H28.8v-10.18h14.37zm-16.526 0v10.18H13.557v-10.18h13.087zM13.557 47.967h13.087v10.109H13.557V47.968zm13.087 34.807H13.557v-9.903h13.087v9.903zm0-12.059H13.557V60.233h13.087v10.483zm16.526-12.64H28.8V47.969h14.37v10.109zm2.156-12.264V35.63h14.166v10.182H45.326z" fill="#fff" fill-opacity=".48"></path>
      <path d="M61.898 34.927v0a1.703 1.703 0 00-1.7-1.703h0-47.346 0a1.704 1.704 0 00-1.7 1.703v48.551h0a1.704 1.704 0 001.7 1.703h30.285c.265.087.551.087.816 0h5.618a1.328 1.328 0 000-2.656h-4.697v-5.49a1.328 1.328 0 00-2.657 0v5.49H29.05v-9.403h14.13a1.328 1.328 0 100-2.656H29.05v-9.983h13.87v1.87a1.329 1.329 0 002.656 0v-1.87h.216a1.328 1.328 0 000-2.656h-.216v-9.609h13.666v1.265a1.328 1.328 0 102.656 0V34.927zm-18.979.953v9.682H29.05V35.88h13.87zm-16.525 0v9.682H13.807V35.88h12.587zM13.807 48.218h12.587v9.609H13.807v-9.609zm12.587 34.307H13.807v-9.403h12.587v9.403zm0-12.059H13.807v-9.983h12.587v9.983zm16.526-12.64H29.05v-9.608h13.87v9.609zm2.656-12.264V35.88h13.666v9.682H45.576z" stroke="#fff" stroke-opacity=".48" stroke-width=".5"></path>
      <path d="M63.371 48.216c-11.823 0-21.44 9.418-21.44 20.994s9.618 20.993 21.44 20.993c11.823 0 21.441-9.418 21.441-20.993 0-11.576-9.618-20.994-21.44-20.994zm0 39.83c-10.633 0-19.284-8.45-19.284-18.836 0-10.387 8.651-18.837 19.284-18.837 10.634 0 19.285 8.45 19.285 18.837s-8.65 18.837-19.285 18.837z" fill="#fff" fill-opacity=".48"></path>
      <path d="M63.371 47.966c-11.956 0-21.69 9.525-21.69 21.244s9.735 21.243 21.69 21.243c11.956 0 21.691-9.524 21.691-21.243 0-11.72-9.735-21.244-21.69-21.244zm0 39.83c-10.5 0-19.034-8.343-19.034-18.586 0-10.243 8.534-18.587 19.034-18.587 10.501 0 19.035 8.344 19.035 18.587s-8.533 18.587-19.035 18.587z" stroke="#fff" stroke-opacity=".48" stroke-width=".5"></path>
      <path d="M64.761 58.452v-1.534a1.078 1.078 0 00-2.156 0v1.537a5.143 5.143 0 00-2.9 1.394c-1.613 1.572-1.709 3.776-1.7 4.414.037 2.477 1.919 4.568 4.578 5.083l.24.048.6.116c.092.018.308.082.423.117a1.061 1.061 0 01.158.06l.37.14c.037.014.074.03.109.048.178.09.222.116.352.192l.193.111.043.027.041.026c.39.235 2.341 1.504 2.42 3.354.046 1.107-.24 1.953-.872 2.586-.873.872-2.35 1.217-3.427 1.172-2.271-.096-3.612-1.938-3.725-2.942a1.078 1.078 0 10-2.143.24c.313 2.787 3.082 4.481 5.24 4.803v1.31a1.078 1.078 0 102.156 0V79.38c1.189-.213 2.463-.724 3.423-1.685 1.054-1.053 1.573-2.506 1.502-4.2-.121-2.872-2.668-4.631-3.464-5.113l-.104-.065a9.474 9.474 0 01-.2-.115 7.355 7.355 0 00-.46-.25 3.294 3.294 0 00-.316-.14l-.352-.133a3.259 3.259 0 00-.326-.118 6.944 6.944 0 00-.639-.169l-.587-.114-.245-.048c-1.931-.374-2.814-1.776-2.832-2.998-.012-.866.257-2.066 1.048-2.84.631-.614 1.542-.902 2.708-.854a4.135 4.135 0 013.965 2.95 1.078 1.078 0 002.095-.51 6.25 6.25 0 00-5.216-4.526z" fill="#fff" fill-opacity=".48"></path>
      <path d="M64.835 70.067l-.018-.011c-.116-.067-.164-.095-.334-.18a1.096 1.096 0 00-.109-.049l.46.24zm0 0a19.258 19.258 0 01.193.111l-.193-.111zM59.53 59.669h0a5.394 5.394 0 012.824-1.43v-1.321a1.328 1.328 0 012.656 0v1.319a6.502 6.502 0 015.207 4.675l.003.01h0a1.328 1.328 0 01-2.582.627 3.873 3.873 0 00-.745-1.377c-.548-.658-1.468-1.323-2.987-1.385h0c-1.12-.045-1.956.233-2.523.785-.725.707-.984 1.828-.973 2.656.017 1.103.813 2.404 2.63 2.757h0l.245.048h0l.586.114c.201.038.436.107.664.175h0c.118.035.234.077.347.125l.348.132h0c.116.044.23.095.34.15m-6.04-8.06l6.387 8.533.125-.216s0 0 0 0a7.621 7.621 0 00-.472-.257m-6.04-8.06h0c-1.691 1.648-1.785 3.944-1.775 4.597l1.775-4.597zm6.04 8.06l-.113.223.113-.223s0 0 0 0zm.783.44h-.003l-.129.213.134-.21-.002-.002zm-8.598-3.903c.038 2.611 2.02 4.79 4.779 5.326l.24.047h0l.115.022.485.095c.078.015.277.074.399.11.03.009.06.02.088.032l.047.02h0l.006.002.37.141h0a.88.88 0 01.085.037h0c.164.083.207.108.32.174l.02.01v.002c.02.01.043.024.069.039l.12.07.037.023.047.029c.186.112.75.475 1.274 1.029.527.557.99 1.282 1.024 2.121.045 1.055-.226 1.827-.798 2.399-.806.806-2.205 1.142-3.24 1.099a3.859 3.859 0 01-2.51-1.062c-.603-.57-.928-1.23-.976-1.657a1.329 1.329 0 00-1.965-1.022l.12.218-.12-.218a1.329 1.329 0 00-.675 1.318c.165 1.473.98 2.648 2.019 3.49a7.396 7.396 0 003.219 1.495v1.099a1.328 1.328 0 102.656 0v-1.167l-7.255-15.32z" stroke="#fff" stroke-opacity=".48" stroke-width=".5"></path>
    </g>
  </symbol>
  <symbol fill="none" xmlns="http://www.w3.org/2000/svg" viewBox="0 0 92 92" id="business-report">
    <g opacity=".51" clip-path="url(#clip0)">
      <path d="M30.235 15.652a3.38 3.38 0 00-2.722-.774c-8.05 1.246-14.12 8.319-14.12 16.452 0 4.419 1.74 8.591 4.897 11.75 3.157 3.157 7.33 4.896 11.749 4.896 8.133 0 15.205-6.07 16.452-14.12a3.381 3.381 0 00-.774-2.722 3.358 3.358 0 00-2.552-1.174h-11.13a.627.627 0 01-.626-.627v-11.13c0-.982-.428-1.912-1.174-2.551zm1.8 17.048h11.13c.248 0 .402.136.472.217a.638.638 0 01.146.52c-1.042 6.726-6.95 11.799-13.744 11.799-7.668 0-13.906-6.238-13.906-13.906 0-6.794 5.073-12.703 11.8-13.744a.637.637 0 01.52.146c.08.07.216.223.216.472v11.13a3.37 3.37 0 003.366 3.366z" fill="#fff" fill-opacity=".48"></path>
      <path d="M30.365 15.5h0a3.557 3.557 0 011.244 2.704v11.13c0 .234.191.426.426.426h11.13a3.56 3.56 0 012.704 1.243c.681.796.98 1.846.82 2.883-1.262 8.147-8.418 14.29-16.65 14.29-4.473 0-8.696-1.76-11.89-4.956-3.195-3.194-4.956-7.418-4.956-11.89 0-8.232 6.142-15.388 14.29-16.65l2.882.82zm0 0a3.58 3.58 0 00-2.883-.82l2.883.82zm13.22 17.906h0c-1.026 6.63-6.851 11.63-13.546 11.63-7.557 0-13.706-6.149-13.706-13.706 0-6.695 5-12.52 11.63-13.546h0a.437.437 0 01.359.1.414.414 0 01.147.32v11.13a3.57 3.57 0 003.566 3.566h11.13c.168 0 .27.09.32.147.05.059.128.18.1.359z" stroke="#fff" stroke-opacity=".48" stroke-width=".4"></path>
      <path d="M83.367 75.194a1.37 1.37 0 001.37-1.37V10.789c0-3.8-3.09-6.89-6.889-6.89h-2.745A6.901 6.901 0 0068.895 0H14.153a6.898 6.898 0 00-6.89 6.89v25.741a1.37 1.37 0 102.74 0V6.891a4.155 4.155 0 014.15-4.15h54.742a4.156 4.156 0 014.152 4.15v61.168H62.381a3.86 3.86 0 00-3.856 3.856v11.072H14.153a4.154 4.154 0 01-4.15-4.149V38.842a1.37 1.37 0 00-2.74 0v39.996a6.897 6.897 0 006.89 6.889h2.088c.314 3.511 3.27 6.273 6.861 6.273h54.746c3.798 0 6.889-3.091 6.889-6.89v-4.892a1.37 1.37 0 00-2.74 0v4.891a4.154 4.154 0 01-4.15 4.15H23.104a4.157 4.157 0 01-4.105-3.532h40.898c.357 0 .713-.138.982-.414L75.4 70.385c.245-.253.387-.604.387-.956V6.639h2.061a4.154 4.154 0 014.149 4.15v63.035c0 .757.613 1.37 1.37 1.37zM62.38 70.799h8.793l-9.91 10.186v-9.07c0-.615.502-1.116 1.117-1.116z" fill="#fff" fill-opacity=".48"></path>
      <path d="M83.367 75.394a1.57 1.57 0 001.57-1.57V10.789c0-3.91-3.18-7.09-7.089-7.09h-2.62A7.1 7.1 0 0068.894-.2H14.153c-3.91 0-7.09 3.18-7.09 7.09v25.741a1.57 1.57 0 003.14 0V6.891a3.955 3.955 0 013.95-3.95h54.742a3.956 3.956 0 013.952 3.95v60.968H62.381a4.06 4.06 0 00-4.056 4.056v10.872H14.153a3.954 3.954 0 01-3.95-3.949V38.842a1.57 1.57 0 10-3.14 0v39.996c0 3.91 3.18 7.089 7.09 7.089h1.908c.406 3.526 3.408 6.273 7.041 6.273h54.746c3.909 0 7.088-3.18 7.088-7.09v-4.892a1.57 1.57 0 00-3.14 0v4.891a3.954 3.954 0 01-3.948 3.95H23.103a3.957 3.957 0 01-3.865-3.132h40.658c.408 0 .817-.158 1.125-.475 0 0 0 0 0 0l14.522-14.928-.144-.14.144.14c.282-.29.444-.69.444-1.095V6.839h1.861a3.954 3.954 0 013.949 3.95v63.035c0 .867.703 1.57 1.57 1.57zM62.38 70.999h8.32l-9.236 9.494v-8.578c0-.505.411-.916.916-.916z" stroke="#fff" stroke-opacity=".48" stroke-width=".4"></path>
      <path d="M61.684 63.842a1.37 1.37 0 00-1.37-1.37H18a1.37 1.37 0 100 2.74h42.313a1.37 1.37 0 001.37-1.37z" fill="#fff" fill-opacity=".48"></path>
      <path d="M61.884 63.842a1.57 1.57 0 00-1.57-1.57H18a1.57 1.57 0 100 3.14h42.313a1.57 1.57 0 001.57-1.57z" stroke="#fff" stroke-opacity=".48" stroke-width=".4"></path>
      <path d="M17.583 69.364a1.37 1.37 0 000 2.74h30.05a1.37 1.37 0 000-2.74h-30.05z" fill="#fff" fill-opacity=".48"></path>
      <path d="M17.583 69.164a1.57 1.57 0 000 3.14h30.05a1.57 1.57 0 100-3.14h-30.05z" stroke="#fff" stroke-opacity=".48" stroke-width=".4"></path>
      <path d="M16.63 56.95c0 .756.614 1.37 1.37 1.37h42.314a1.37 1.37 0 000-2.74H18a1.37 1.37 0 00-1.37 1.37z" fill="#fff" fill-opacity=".48"></path>
      <path d="M16.43 56.95c0 .866.704 1.57 1.57 1.57h42.314a1.57 1.57 0 100-3.14H18a1.57 1.57 0 00-1.57 1.57z" stroke="#fff" stroke-opacity=".48" stroke-width=".4"></path>
      <path d="M38.042 9.469a3.377 3.377 0 00-2.71.78 3.36 3.36 0 00-1.17 2.548v11.338a3.37 3.37 0 003.367 3.367h13.484a1.37 1.37 0 001.37-1.37 16.97 16.97 0 00-4.935-11.916 16.97 16.97 0 00-9.406-4.747zm-.513 15.293a.626.626 0 01-.627-.627V12.797c.053-.464.296-.635.732-.619a14.21 14.21 0 017.876 3.976 14.223 14.223 0 014.027 8.269.304.304 0 01-.303.339H37.53z" fill="#fff" fill-opacity=".48"></path>
      <path d="M47.59 14.075l-.142.141.141-.141a17.17 17.17 0 00-9.517-4.804 3.577 3.577 0 00-2.87.826 3.56 3.56 0 00-1.24 2.7v11.338a3.57 3.57 0 003.567 3.567h13.484a1.57 1.57 0 001.57-1.57c0-4.49-1.82-8.883-4.994-12.057zM37.528 24.56h-.013a.426.426 0 01-.413-.426V12.81c.023-.196.082-.293.147-.346.068-.055.178-.09.365-.085a14.01 14.01 0 017.754 3.917 14.023 14.023 0 013.97 8.152.104.104 0 01-.105.114H37.53z" stroke="#fff" stroke-opacity=".48" stroke-width=".4"></path>
      <path d="M56.22 40.76v4.012a3.762 3.762 0 002.885 3.652v2.569a1.37 1.37 0 002.74 0v-2.569a3.762 3.762 0 002.887-3.652V17.065a2.906 2.906 0 013.096 2.902v7.64a1.37 1.37 0 002.74 0v-7.64a5.62 5.62 0 00-1.654-3.995 5.61 5.61 0 00-4.182-1.65v-2.127a3.763 3.763 0 00-3.758-3.758h-.995a3.763 3.763 0 00-3.759 3.758V40.76zm5.772-1.37H58.96V27.699h3.032v11.69zm-1.018 6.4h-.995a1.02 1.02 0 01-1.019-1.018V42.13h3.032v2.642a1.02 1.02 0 01-1.018 1.018zm-.995-34.613h.995a1.02 1.02 0 011.018 1.018V24.96H58.96V12.195a1.02 1.02 0 011.019-1.018z" fill="#fff" fill-opacity=".48"></path>
      <path d="M69.055 15.83h0a5.81 5.81 0 00-4.123-1.712v-1.923a3.963 3.963 0 00-3.958-3.958h-.995a3.963 3.963 0 00-3.959 3.958v32.577a3.962 3.962 0 002.885 3.806v2.415a1.57 1.57 0 003.14 0v-2.414a3.962 3.962 0 002.887-3.807V17.259a2.703 2.703 0 012.696 2.709v7.64a1.57 1.57 0 103.14 0v-7.64a5.82 5.82 0 00-1.713-4.137zM56.02 26.31h0zm0 .038c0 .002 0 0 0 0h0zm0 14.392h0zm0 .04s0 0 0 0h0zm3.14 3.992V42.33h2.632v2.442a.82.82 0 01-.818.818h-.995a.82.82 0 01-.819-.818zm2.632-32.577V24.76H59.16V12.195v0a.82.82 0 01.819-.818h.995a.82.82 0 01.818.818zm0 26.995H59.16V27.899h2.632v11.29z" stroke="#fff" stroke-opacity=".48" stroke-width=".4"></path>
    </g>
    <defs>
      <clipPath id="clip0">
        <path fill="#fff" d="M0 0h92v92H0z"></path>
      </clipPath>
    </defs>
  </symbol>
  <symbol fill="none" xmlns="http://www.w3.org/2000/svg" viewBox="0 0 92 92" id="fast">
    <g opacity=".51" fill="#fff" fill-opacity=".48">
      <path d="M15.541 32.523H4.976v5.391H15.54v-5.39zm0 21.563H4.976v5.39H15.54v-5.39zm0-10.781H0v5.39h15.541v-5.39zm40.925-32.839c-19.594 0-35.534 15.94-35.534 35.534s15.94 35.534 35.534 35.534C76.059 81.534 92 65.594 92 46c0-19.593-15.94-35.534-35.534-35.534zm0 65.677c-16.621 0-30.144-13.522-30.144-30.143 0-16.621 13.523-30.143 30.144-30.143S86.609 29.379 86.609 46c0 16.621-13.522 30.144-30.143 30.144z"></path>
      <path d="M58.206 47.34V29.927h-5.39V50.19l13.891 9.467 3.036-4.455-11.536-7.862z"></path>
    </g>
  </symbol>
  <symbol fill="none" xmlns="http://www.w3.org/2000/svg" viewBox="0 0 92 92" id="guarantee">
    <g opacity=".51" clip-path="url(#clip0)" fill="#fff" fill-opacity=".48">
      <path d="M76.965 57.372a36.832 36.832 0 006.086-20.32C83.05 16.621 66.429 0 45.999 0S8.947 16.621 8.947 37.051a36.837 36.837 0 006.085 20.32L.539 78.509l16.584-3.092L20.215 92l13.668-19.933a36.888 36.888 0 0012.116 2.036c4.241 0 8.317-.718 12.115-2.036L71.782 92l3.092-16.584 16.584 3.092-14.493-21.136zM23.146 78.137l-1.687-9.046-9.045 1.688 6.104-8.903a37.296 37.296 0 0010.298 7.994l-5.67 8.267zm-8.777-41.086c0-17.44 14.19-31.629 31.63-31.629 17.44 0 31.63 14.19 31.63 31.63 0 17.44-14.19 31.63-31.63 31.63-17.44 0-31.63-14.19-31.63-31.63zm56.169 32.04l-1.687 9.046-5.67-8.267a37.296 37.296 0 0010.3-7.994l6.103 8.902-9.046-1.687z"></path>
      <path d="M39.394 45.188l-8.816-8.815-3.834 3.834 12.65 12.65 25.86-25.86-3.834-3.834-22.026 22.025z"></path>
    </g>
    <defs>
      <clipPath id="clip0">
        <path fill="#fff" d="M0 0h92v92H0z"></path>
      </clipPath>
    </defs>
  </symbol>
  <symbol fill="none" xmlns="http://www.w3.org/2000/svg" viewBox="0 0 92 92" id="money-bag">
    <g opacity=".51" fill="#fff" fill-opacity=".48">
      <path d="M49.099 57.744h-5.26a3.461 3.461 0 110-6.924h9.257a2.302 2.302 0 002.295-2.295 2.302 2.302 0 00-2.295-2.295h-4.342v-3.195a2.302 2.302 0 00-2.295-2.295 2.302 2.302 0 00-2.295 2.295v3.195h-.325c-4.438 0-8.053 3.614-8.053 8.052 0 4.437 3.615 8.052 8.053 8.052h5.26a3.461 3.461 0 110 6.924h-9.43a2.302 2.302 0 00-2.295 2.295 2.302 2.302 0 002.295 2.296h4.514v3.27a2.302 2.302 0 002.295 2.296 2.302 2.302 0 002.295-2.296v-3.27h.44c4.4-.058 7.938-3.654 7.938-8.053 0-4.437-3.615-8.052-8.052-8.052z"></path>
      <path d="M80.964 52.541c-2.41-5.546-5.738-10.921-9.946-15.951-5.088-6.121-10.157-10.214-12.739-12.108l9.755-18.094c.478-.899.325-2.008-.42-2.716C65.087 1.205 62.41 0 59.426 0c-2.735 0-5.24 1.033-7.421 1.95-1.722.709-3.348 1.397-4.667 1.397a2.9 2.9 0 01-1.09-.191C41.696 1.492 38.195.459 34.81.459c-4.285 0-7.938 1.721-11.515 5.394a2.31 2.31 0 00-.267 2.869l10.52 15.894c-2.602 1.932-7.575 5.987-12.567 11.974-4.189 5.03-7.536 10.405-9.946 15.951-3.022 6.982-4.552 14.269-4.552 21.652C6.484 84.005 14.479 92 24.29 92h43.418c9.812 0 17.807-7.995 17.807-17.807 0-7.383-1.53-14.67-4.552-21.652zM27.925 7.765c2.219-1.912 4.342-2.754 6.886-2.754 2.716 0 5.776.918 9.85 2.43.842.305 1.74.458 2.659.458 2.237 0 4.38-.88 6.426-1.74 1.97-.823 3.845-1.607 5.662-1.607.88 0 2.123.153 3.691 1.263l-9.18 17.06h-15.99L27.924 7.766zM67.71 87.41H24.29c-7.287 0-13.217-5.93-13.217-13.217 0-12.26 4.495-23.89 13.332-34.562 5.585-6.752 11.265-10.94 12.987-12.165h17.176c1.74 1.205 7.402 5.413 12.987 12.165 8.856 10.672 13.331 22.282 13.331 34.562.038 7.287-5.89 13.217-13.178 13.217z"></path>
    </g>
  </symbol>
</svg>