<svg width="73" height="19" viewBox="0 0 73 19" fill="none" xmlns="http://www.w3.org/2000/svg">
<path d="M5.616 13.848H11.4V18H1.32V1.2H5.616V13.848ZM28.2047 15.84C26.5087 17.52 24.4287 18.36 21.9647 18.36C19.5007 18.36 17.4127 17.52 15.7007 15.84C14.0047 14.144 13.1567 12.064 13.1567 9.6C13.1567 7.136 14.0047 5.064 15.7007 3.384C17.4127 1.688 19.5007 0.839999 21.9647 0.839999C24.4287 0.839999 26.5087 1.688 28.2047 3.384C29.9167 5.064 30.7727 7.136 30.7727 9.6C30.7727 12.064 29.9167 14.144 28.2047 15.84ZM18.7247 12.888C19.5887 13.736 20.6687 14.16 21.9647 14.16C23.2607 14.16 24.3407 13.736 25.2047 12.888C26.0687 12.024 26.5007 10.928 26.5007 9.6C26.5007 8.272 26.0687 7.184 25.2047 6.336C24.3407 5.472 23.2607 5.04 21.9647 5.04C20.6687 5.04 19.5887 5.472 18.7247 6.336C17.8607 7.184 17.4287 8.272 17.4287 9.6C17.4287 10.928 17.8607 12.024 18.7247 12.888ZM51.1256 8.376V10.08C51.1256 12.544 50.3496 14.544 48.7976 16.08C47.2616 17.6 45.2616 18.36 42.7976 18.36C40.1736 18.36 38.0136 17.52 36.3176 15.84C34.6376 14.16 33.7976 12.088 33.7976 9.624C33.7976 7.16 34.6376 5.08 36.3176 3.384C37.9976 1.688 40.0776 0.839999 42.5576 0.839999C44.1256 0.839999 45.5576 1.192 46.8536 1.896C48.1656 2.6 49.1896 3.536 49.9256 4.704L46.2776 6.792C45.9416 6.264 45.4456 5.84 44.7896 5.52C44.1496 5.2 43.4216 5.04 42.6056 5.04C41.2776 5.04 40.1896 5.472 39.3416 6.336C38.4936 7.2 38.0696 8.304 38.0696 9.648C38.0696 10.944 38.4856 12.04 39.3176 12.936C40.1656 13.832 41.3496 14.28 42.8696 14.28C44.8216 14.28 46.1096 13.544 46.7336 12.072H42.6536V8.376H51.1256ZM69.2053 15.84C67.5093 17.52 65.4293 18.36 62.9653 18.36C60.5013 18.36 58.4133 17.52 56.7013 15.84C55.0053 14.144 54.1573 12.064 54.1573 9.6C54.1573 7.136 55.0053 5.064 56.7013 3.384C58.4133 1.688 60.5013 0.839999 62.9653 0.839999C65.4293 0.839999 67.5093 1.688 69.2053 3.384C70.9173 5.064 71.7733 7.136 71.7733 9.6C71.7733 12.064 70.9173 14.144 69.2053 15.84ZM59.7253 12.888C60.5893 13.736 61.6693 14.16 62.9653 14.16C64.2613 14.16 65.3413 13.736 66.2053 12.888C67.0693 12.024 67.5013 10.928 67.5013 9.6C67.5013 8.272 67.0693 7.184 66.2053 6.336C65.3413 5.472 64.2613 5.04 62.9653 5.04C61.6693 5.04 60.5893 5.472 59.7253 6.336C58.8613 7.184 58.4293 8.272 58.4293 9.6C58.4293 10.928 58.8613 12.024 59.7253 12.888Z" fill="#FF9900"/>
</svg>
