<svg width="0" height="0" class="hidden">
  <symbol fill="none" xmlns="http://www.w3.org/2000/svg" viewBox="0 0 66 68" id="1">
    <circle cx="33" cy="34.762" r="32.5" stroke="#fff"></circle>
    <path fill-rule="evenodd" clip-rule="evenodd" d="M64.972 20.887C59.692 8.603 47.48 0 33.262 0c-1.487 0-2.95.094-4.387.276v3.027c1.433-.2 2.898-.303 4.386-.303 12.521 0 23.337 7.306 28.415 17.887h3.296z" fill="#FFB800"></path>
  </symbol>
  <symbol fill="none" xmlns="http://www.w3.org/2000/svg" viewBox="0 0 69 68" id="2">
    <circle cx="33" cy="34.876" r="32.5" stroke="#fff"></circle>
    <path fill-rule="evenodd" clip-rule="evenodd" d="M64.43 50.31a34.543 34.543 0 003.709-15.622C68.139 15.53 52.609 0 33.45 0c-.366 0-.73.006-1.093.017v3.001C32.72 3.006 33.084 3 33.45 3c17.5 0 31.688 14.187 31.688 31.688a31.57 31.57 0 01-3.392 14.28l2.683 1.341z" fill="#FFB800"></path>
  </symbol>
  <symbol fill="none" xmlns="http://www.w3.org/2000/svg" viewBox="0 0 69 70" id="3">
    <circle cx="33" cy="34.912" r="32.5" stroke="#fff"></circle>
    <path fill-rule="evenodd" clip-rule="evenodd" d="M31.99 69.853c.365.011.731.017 1.1.017 19.294 0 34.934-15.641 34.934-34.935C68.025 15.641 52.385 0 33.09 0c-.369 0-.735.006-1.1.017v3.002c.365-.013.731-.019 1.1-.019 17.637 0 31.934 14.298 31.934 31.935S50.728 66.87 33.09 66.87c-.369 0-.736-.006-1.1-.019v3.002z" fill="#FFB800"></path>
  </symbol>
  <symbol fill="none" xmlns="http://www.w3.org/2000/svg" viewBox="0 0 67 67" id="4">
    <circle cx="33" cy="33.901" r="32.5" stroke="#fff"></circle>
    <path fill-rule="evenodd" clip-rule="evenodd" d="M2.81 48.297c5.467 11.049 16.855 18.647 30.018 18.647 18.486 0 33.471-14.986 33.471-33.472S51.314 0 32.828 0c-.352 0-.703.005-1.053.016v3.002c.35-.012.7-.018 1.053-.018 16.829 0 30.471 13.643 30.471 30.472S49.657 63.943 32.828 63.943c-11.61 0-21.703-6.492-26.847-16.044l-3.171.398z" fill="#FFB800"></path>
  </symbol>
  <symbol fill="none" xmlns="http://www.w3.org/2000/svg" viewBox="0 0 68 68" id="5">
    <circle cx="34.184" cy="34.5" r="32.5" stroke="#fff"></circle>
    <path fill-rule="evenodd" clip-rule="evenodd" d="M5.187 15.905A33.79 33.79 0 000 33.95C0 52.7 15.2 67.9 33.95 67.9c18.75 0 33.95-15.2 33.95-33.95C67.9 15.2 52.7 0 33.95 0c-1.437 0-2.853.09-4.243.263l-.957 3.172A31.157 31.157 0 0133.95 3C51.043 3 64.9 16.857 64.9 33.95S51.043 64.9 33.95 64.9 3 51.043 3 33.95a30.812 30.812 0 016.169-18.545l-3.982.5z" fill="#FFB800"></path>
  </symbol>
  <symbol fill="none" xmlns="http://www.w3.org/2000/svg" viewBox="0 0 70 69" id="6">
    <path fill-rule="evenodd" clip-rule="evenodd" d="M35.307 3.054C17.94 3.054 3.861 17.133 3.861 34.5S17.94 65.946 35.307 65.946 66.753 51.867 66.753 34.5 52.674 3.054 35.307 3.054zM.861 34.5C.86 15.476 16.283.054 35.307.054c19.024 0 34.446 15.422 34.446 34.446 0 19.024-15.422 34.446-34.446 34.446C16.283 68.946.861 53.524.861 34.5z" fill="#FFB800"></path>
  </symbol>
</svg>