<svg width="0" height="0" class="hidden">
  <symbol  xmlns="http://www.w3.org/2000/svg" id="instagram">
    <g clip-path="url(#clip0)" >
      <path d="M11.767 9.381a1.796 1.796 0 11-3.591 0 1.796 1.796 0 013.59 0z"></path>
      <path d="M14.17 6.204a1.668 1.668 0 00-.402-.62 1.667 1.667 0 00-.62-.402c-.19-.074-.475-.162-1-.185-.568-.026-.738-.032-2.177-.032-1.438 0-1.609.006-2.177.031-.525.024-.81.112-1 .186a1.667 1.667 0 00-.62.403 1.67 1.67 0 00-.402.62c-.074.19-.162.474-.186 1-.026.568-.031.738-.031 2.176 0 1.439.005 1.61.031 2.177.024.526.112.81.186 1 .086.235.224.446.403.62.173.179.385.316.62.403.189.074.474.161 1 .185.567.026.738.032 2.176.032 1.439 0 1.61-.006 2.177-.032.525-.024.81-.111 1-.185.47-.181.841-.553 1.023-1.022.073-.19.161-.475.185-1 .026-.569.031-.74.031-2.178s-.005-1.608-.03-2.176c-.025-.526-.112-.81-.186-1zm-4.199 5.944a2.766 2.766 0 110-5.533 2.766 2.766 0 010 5.533zm2.876-4.996a.647.647 0 110-1.293.647.647 0 010 1.293z"></path>
      <path d="M9.971 0a9.382 9.382 0 100 18.763A9.382 9.382 0 009.971 0zm5.355 11.602c-.026.574-.118.965-.25 1.308a2.755 2.755 0 01-1.576 1.575c-.343.133-.734.225-1.308.25-.574.027-.758.033-2.22.033-1.464 0-1.647-.006-2.222-.032-.573-.027-.965-.118-1.307-.25a2.64 2.64 0 01-.954-.622 2.64 2.64 0 01-.622-.954c-.133-.343-.224-.734-.25-1.308-.027-.574-.033-.758-.033-2.22 0-1.464.006-1.647.033-2.222.026-.573.117-.965.25-1.307a2.62 2.62 0 01.622-.954c.269-.274.594-.487.954-.622.342-.133.734-.224 1.307-.25.575-.026.758-.033 2.221-.033s1.647.007 2.221.033c.574.026.965.117 1.308.25.36.135.685.348.954.622.274.269.486.594.621.954.134.342.225.734.25 1.307.027.575.033.758.033 2.221s-.006 1.647-.032 2.221z"></path>
    </g>
    <defs>
      <clipPath id="clip0">
        <path  transform="translate(.59)" d="M0 0h18.762v18.762H0z"></path>
      </clipPath>
    </defs>
  </symbol>
  <symbol  xmlns="http://www.w3.org/2000/svg" id="facebook">
    <g clip-path="url(#clip0)" >
      <path d="M11.189 18.64zm.188-.032l-.113.02.113-.02zm-.633.094zm.18-.022zm.708-.122zm.634-.158l-.08.022.08-.022zm-.192.053l-.087.022.087-.022zm-.251.062zm-1.358.215zm8.593-9.349a9.382 9.382 0 10-9.382 9.381c.055 0 .11 0 .165-.002v-7.303H7.826V9.11H9.84V7.38c0-2.005 1.224-3.096 3.012-3.096.856 0 1.592.064 1.807.093v2.095h-1.233c-.973 0-1.161.462-1.161 1.14V9.11h2.326l-.303 2.348h-2.023V18.4c3.921-1.124 6.792-4.737 6.792-9.019zm-8.762 9.361zm-.299.015z"></path>
    </g>
    <defs>
      <clipPath id="clip0">
        <path  transform="translate(.295)" d="M0 0h18.762v18.762H0z"></path>
      </clipPath>
    </defs>
  </symbol>
  <symbol  xmlns="http://www.w3.org/2000/svg" id="linkedin">
    <g clip-path="url(#clip0)">
      <path d="M9.381 0a9.382 9.382 0 100 18.763A9.382 9.382 0 009.381 0zM6.655 14.182H4.37V7.308h2.285v6.874zM5.513 6.369h-.015c-.767 0-1.263-.527-1.263-1.187 0-.674.511-1.188 1.293-1.188.782 0 1.263.514 1.277 1.188 0 .66-.495 1.187-1.292 1.187zm9.38 7.813H12.61v-3.678c0-.924-.33-1.554-1.157-1.554-.632 0-1.007.425-1.173.836-.06.147-.075.352-.075.557v3.839H7.92s.03-6.229 0-6.874h2.284v.973c.304-.468.847-1.134 2.06-1.134 1.502 0 2.63.982 2.63 3.093v3.942z" ></path>
    </g>
    <defs>
      <clipPath id="clip0">
        <path  d="M0 0h18.762v18.762H0z"></path>
      </clipPath>
    </defs>
  </symbol>
</svg>